<svg width="24" height="24" viewBox="0 0 24 24" fill="none" xmlns="http://www.w3.org/2000/svg">
<g id="Deposit">
<g id="Union">
<path d="M12 2.25C12.4142 2.25 12.75 2.58579 12.75 3V15.4393L18.2197 9.96967C18.5126 9.67678 18.9874 9.67678 19.2803 9.96967C19.5732 10.2626 19.5732 10.7374 19.2803 11.0303L12.5303 17.7803C12.2374 18.0732 11.7626 18.0732 11.4697 17.7803L4.71967 11.0303C4.42678 10.7374 4.42678 10.2626 4.71967 9.96967C5.01256 9.67678 5.48744 9.67678 5.78033 9.96967L11.25 15.4393V3C11.25 2.58579 11.5858 2.25 12 2.25Z" fill="#1386E5"/>
<path d="M3.75 19.5C3.33579 19.5 3 19.8358 3 20.25C3 20.6642 3.33579 21 3.75 21H20.25C20.6642 21 21 20.6642 21 20.25C21 19.8358 20.6642 19.5 20.25 19.5H3.75Z" fill="#1386E5"/>
</g>
</g>
</svg>
