<svg width="44" height="44" viewBox="0 0 44 44" fill="none" xmlns="http://www.w3.org/2000/svg">
<path d="M0 0H44V44H12.375C5.54048 44 0 38.4595 0 31.625V0Z" fill="white"/>
<path fill-rule="evenodd" clip-rule="evenodd" d="M22.1202 11.1978C22.1214 11.8606 21.5852 12.3988 20.9224 12.4C18.7128 12.404 17.1429 12.4354 15.95 12.6284C14.7921 12.8159 14.1232 13.1366 13.6302 13.6296C13.0995 14.1603 12.7668 14.8967 12.587 16.2341C12.4026 17.6061 12.4 19.4201 12.4 21.9996C12.4 24.5793 12.4025 26.3932 12.587 27.7653C12.7668 29.1027 13.0995 29.8391 13.6302 30.3698C14.1609 30.9005 14.8973 31.2332 16.2348 31.413C17.6068 31.5975 19.4207 31.6 22.0004 31.6C24.5799 31.6 26.3939 31.5975 27.7659 31.413C29.1033 31.2332 29.8397 30.9005 30.3705 30.3698C30.8634 29.8768 31.1841 29.2079 31.3715 28.05C31.5646 26.8571 31.596 25.2872 31.6 23.0776C31.6012 22.4148 32.1394 21.8786 32.8022 21.8798C33.4649 21.881 34.0012 22.4192 34 23.0819C33.996 25.2519 33.9698 27.0184 33.7407 28.4336C33.506 29.8836 33.0401 31.0942 32.0675 32.0669C31.0166 33.1178 29.6892 33.576 28.0857 33.7916C26.5352 34 24.5594 34 22.0893 34H21.9114C19.4413 34 17.4655 34 15.915 33.7916C14.3114 33.576 12.9841 33.1178 11.9331 32.0668C10.8822 31.016 10.424 29.6886 10.2084 28.0851C9.99995 26.5344 9.99998 24.5588 10 22.0886V21.9108C9.99998 19.4406 9.99995 17.4649 10.2084 15.9143C10.424 14.3107 10.8822 12.9835 11.9331 11.9325C12.9058 10.9599 14.1164 10.494 15.5665 10.2593C16.9816 10.0302 18.7481 10.0039 20.9181 10C21.5808 9.99881 22.119 10.5351 22.1202 11.1978Z" fill="#00BD1C"/>
<path d="M27.5557 10.0716C28.6098 10.0098 30.7097 9.91945 31.9651 10.1418C32.481 10.2331 32.9303 10.4812 33.2657 10.8385L33.2761 10.8497C33.5732 11.1705 33.7793 11.5778 33.8608 12.0379C34.0828 13.293 33.9926 15.3925 33.9308 16.4466C33.8492 17.8382 32.1827 18.4084 31.24 17.4657L29.7629 15.9887L26.4804 19.2462C26.0024 19.7205 25.2305 19.7176 24.7561 19.2396C24.2819 18.7617 24.2848 17.9897 24.7627 17.5154L28.0386 14.2645L26.5367 12.7625C25.5941 11.8199 26.1642 10.1533 27.5557 10.0716Z" fill="#00BD1C"/>
</svg>
